# xmcd
#
# Track frame offsets:
#	150
#	16338
#	31183
#	44028
#	57383
#	72538
#	89900
#	105090
#	120360
#	133850
#	151978
#	165885
#
# Disc length: 2428 seconds
#
# Revision: 0
# Processed by: cddbd v1.5.2PL0 Copyright (c) Steve Scherf et al.
# Submitted via: audiograbber 1.83.01
#
DISCID=9a097a0c
DTITLE=сайеккаяиоу яита [1997] - ма йяатале епажг
DYEAR=1997
DGENRE=
TTITLE0=амоине
TTITLE1=ма йяатале епажг
TTITLE2=де ха песы ма пехамы
TTITLE3=еисаи жытиа йаи тяека
TTITLE4=лг л' аццифеис
TTITLE5=ьелата
TTITLE6=лг ле яытас
TTITLE7=ека ста йака соу
TTITLE8=отам г ацапг
TTITLE9=лг жобасаи
TTITLE10=ста сйакиа соу
TTITLE11=фгсе
EXTD=
EXTT0=
EXTT1=
EXTT2=
EXTT3=
EXTT4=
EXTT5=
EXTT6=
EXTT7=
EXTT8=
EXTT9=
EXTT10=
EXTT11=
PLAYORDER=
